<mxfile host="app.diagrams.net" modified="2024-05-17T11:42:29.361Z" agent="Mozilla/5.0 (Windows NT 10.0; Win64; x64) AppleWebKit/537.36 (KHTML, like Gecko) Chrome/124.0.0.0 Safari/537.36" etag="-dzT8iueaHtvlcIUCgpN" version="24.4.4" type="github">
  <diagram name="Page-1" id="2YBvvXClWsGukQMizWep">
    <mxGraphModel dx="916" dy="540" grid="1" gridSize="10" guides="1" tooltips="1" connect="1" arrows="1" fold="1" page="1" pageScale="1" pageWidth="850" pageHeight="1100" math="0" shadow="0">
      <root>
        <mxCell id="0" />
        <mxCell id="1" parent="0" />
        <mxCell id="LR544EB8NKKkz8-Wyp8B-1" value="Clinet" style="shape=umlLifeline;perimeter=lifelinePerimeter;whiteSpace=wrap;html=1;container=0;dropTarget=0;collapsible=0;recursiveResize=0;outlineConnect=0;portConstraint=eastwest;newEdgeStyle={&quot;edgeStyle&quot;:&quot;elbowEdgeStyle&quot;,&quot;elbow&quot;:&quot;vertical&quot;,&quot;curved&quot;:0,&quot;rounded&quot;:0};" vertex="1" parent="1">
          <mxGeometry x="90" y="40" width="100" height="580" as="geometry" />
        </mxCell>
        <mxCell id="LR544EB8NKKkz8-Wyp8B-2" value="" style="html=1;points=[];perimeter=orthogonalPerimeter;outlineConnect=0;targetShapes=umlLifeline;portConstraint=eastwest;newEdgeStyle={&quot;edgeStyle&quot;:&quot;elbowEdgeStyle&quot;,&quot;elbow&quot;:&quot;vertical&quot;,&quot;curved&quot;:0,&quot;rounded&quot;:0};" vertex="1" parent="LR544EB8NKKkz8-Wyp8B-1">
          <mxGeometry x="45" y="70" width="10" height="480" as="geometry" />
        </mxCell>
        <mxCell id="LR544EB8NKKkz8-Wyp8B-3" value="Server" style="shape=umlLifeline;perimeter=lifelinePerimeter;whiteSpace=wrap;html=1;container=0;dropTarget=0;collapsible=0;recursiveResize=0;outlineConnect=0;portConstraint=eastwest;newEdgeStyle={&quot;edgeStyle&quot;:&quot;elbowEdgeStyle&quot;,&quot;elbow&quot;:&quot;vertical&quot;,&quot;curved&quot;:0,&quot;rounded&quot;:0};" vertex="1" parent="1">
          <mxGeometry x="220" y="40" width="100" height="600" as="geometry" />
        </mxCell>
        <mxCell id="LR544EB8NKKkz8-Wyp8B-4" value="" style="html=1;points=[];perimeter=orthogonalPerimeter;outlineConnect=0;targetShapes=umlLifeline;portConstraint=eastwest;newEdgeStyle={&quot;edgeStyle&quot;:&quot;elbowEdgeStyle&quot;,&quot;elbow&quot;:&quot;vertical&quot;,&quot;curved&quot;:0,&quot;rounded&quot;:0};" vertex="1" parent="LR544EB8NKKkz8-Wyp8B-3">
          <mxGeometry x="45" y="80" width="10" height="470" as="geometry" />
        </mxCell>
        <mxCell id="LR544EB8NKKkz8-Wyp8B-5" value="发送登录请求" style="html=1;verticalAlign=bottom;endArrow=block;edgeStyle=elbowEdgeStyle;elbow=vertical;curved=0;rounded=0;" edge="1" parent="1" source="LR544EB8NKKkz8-Wyp8B-2" target="LR544EB8NKKkz8-Wyp8B-4">
          <mxGeometry relative="1" as="geometry">
            <mxPoint x="245" y="130" as="sourcePoint" />
            <Array as="points">
              <mxPoint x="230" y="120" />
            </Array>
          </mxGeometry>
        </mxCell>
        <mxCell id="LR544EB8NKKkz8-Wyp8B-6" value="登录" style="html=1;verticalAlign=bottom;startArrow=oval;endArrow=block;startSize=8;edgeStyle=elbowEdgeStyle;elbow=vertical;curved=0;rounded=0;exitX=1;exitY=0.3333333333333333;exitDx=0;exitDy=0;exitPerimeter=0;" edge="1" parent="1" target="LR544EB8NKKkz8-Wyp8B-2">
          <mxGeometry relative="1" as="geometry">
            <mxPoint x="30" y="110" as="sourcePoint" />
          </mxGeometry>
        </mxCell>
        <mxCell id="LR544EB8NKKkz8-Wyp8B-7" value="MySQL" style="shape=umlLifeline;whiteSpace=wrap;html=1;container=0;dropTarget=0;collapsible=0;recursiveResize=0;outlineConnect=0;portConstraint=eastwest;newEdgeStyle={&quot;curved&quot;:0,&quot;rounded&quot;:0};points=[[0,0,0,0,5],[0,1,0,0,-5],[1,0,0,0,5],[1,1,0,0,-5]];perimeter=rectanglePerimeter;targetShapes=umlLifeline;participant=label;" vertex="1" parent="1">
          <mxGeometry x="370" y="40" width="90" height="600" as="geometry" />
        </mxCell>
        <mxCell id="LR544EB8NKKkz8-Wyp8B-8" value="" style="html=1;points=[];perimeter=orthogonalPerimeter;outlineConnect=0;targetShapes=umlLifeline;portConstraint=eastwest;newEdgeStyle={&quot;edgeStyle&quot;:&quot;elbowEdgeStyle&quot;,&quot;elbow&quot;:&quot;vertical&quot;,&quot;curved&quot;:0,&quot;rounded&quot;:0};" vertex="1" parent="LR544EB8NKKkz8-Wyp8B-7">
          <mxGeometry x="45" y="120" width="10" height="50" as="geometry" />
        </mxCell>
        <mxCell id="LR544EB8NKKkz8-Wyp8B-9" value="" style="html=1;points=[[0,0,0,0,5],[0,1,0,0,-5],[1,0,0,0,5],[1,1,0,0,-5]];perimeter=orthogonalPerimeter;outlineConnect=0;targetShapes=umlLifeline;portConstraint=eastwest;newEdgeStyle={&quot;curved&quot;:0,&quot;rounded&quot;:0};" vertex="1" parent="LR544EB8NKKkz8-Wyp8B-7">
          <mxGeometry x="40" y="310" width="10" height="50" as="geometry" />
        </mxCell>
        <mxCell id="LR544EB8NKKkz8-Wyp8B-31" value="" style="html=1;points=[[0,0,0,0,5],[0,1,0,0,-5],[1,0,0,0,5],[1,1,0,0,-5]];perimeter=orthogonalPerimeter;outlineConnect=0;targetShapes=umlLifeline;portConstraint=eastwest;newEdgeStyle={&quot;curved&quot;:0,&quot;rounded&quot;:0};" vertex="1" parent="LR544EB8NKKkz8-Wyp8B-7">
          <mxGeometry x="40" y="400" width="10" height="50" as="geometry" />
        </mxCell>
        <mxCell id="LR544EB8NKKkz8-Wyp8B-32" value="更新文章" style="html=1;verticalAlign=bottom;endArrow=block;curved=0;rounded=0;" edge="1" parent="LR544EB8NKKkz8-Wyp8B-7" target="LR544EB8NKKkz8-Wyp8B-31">
          <mxGeometry width="80" relative="1" as="geometry">
            <mxPoint x="-95" y="405" as="sourcePoint" />
            <mxPoint x="-20" y="420" as="targetPoint" />
          </mxGeometry>
        </mxCell>
        <mxCell id="LR544EB8NKKkz8-Wyp8B-33" value="返回更新后的文章信息" style="html=1;verticalAlign=bottom;endArrow=open;dashed=1;endSize=8;curved=0;rounded=0;" edge="1" parent="LR544EB8NKKkz8-Wyp8B-7">
          <mxGeometry relative="1" as="geometry">
            <mxPoint x="40" y="440" as="sourcePoint" />
            <mxPoint x="-95" y="440" as="targetPoint" />
          </mxGeometry>
        </mxCell>
        <mxCell id="LR544EB8NKKkz8-Wyp8B-10" value="查询用户信息" style="edgeStyle=orthogonalEdgeStyle;rounded=0;orthogonalLoop=1;jettySize=auto;html=1;" edge="1" parent="1" source="LR544EB8NKKkz8-Wyp8B-4" target="LR544EB8NKKkz8-Wyp8B-8">
          <mxGeometry relative="1" as="geometry">
            <mxPoint x="410" y="150" as="targetPoint" />
            <Array as="points">
              <mxPoint x="380" y="160" />
              <mxPoint x="380" y="160" />
            </Array>
          </mxGeometry>
        </mxCell>
        <mxCell id="LR544EB8NKKkz8-Wyp8B-11" value="返回用户信息" style="html=1;verticalAlign=bottom;endArrow=open;dashed=1;endSize=8;edgeStyle=elbowEdgeStyle;elbow=vertical;curved=0;rounded=0;" edge="1" parent="1" source="LR544EB8NKKkz8-Wyp8B-8" target="LR544EB8NKKkz8-Wyp8B-4">
          <mxGeometry x="0.0714" relative="1" as="geometry">
            <mxPoint x="270" y="190.25" as="targetPoint" />
            <Array as="points">
              <mxPoint x="355" y="189.75" />
            </Array>
            <mxPoint x="410" y="190" as="sourcePoint" />
            <mxPoint as="offset" />
          </mxGeometry>
        </mxCell>
        <mxCell id="LR544EB8NKKkz8-Wyp8B-12" value="Redis" style="shape=umlLifeline;perimeter=lifelinePerimeter;whiteSpace=wrap;html=1;container=1;collapsible=0;recursiveResize=0;outlineConnect=0;" vertex="1" parent="1">
          <mxGeometry x="490" y="40" width="70" height="590" as="geometry" />
        </mxCell>
        <mxCell id="LR544EB8NKKkz8-Wyp8B-13" value="" style="html=1;points=[];perimeter=orthogonalPerimeter;" vertex="1" parent="LR544EB8NKKkz8-Wyp8B-12">
          <mxGeometry x="30" y="190" width="10" height="50" as="geometry" />
        </mxCell>
        <mxCell id="LR544EB8NKKkz8-Wyp8B-14" value="" style="html=1;points=[];perimeter=orthogonalPerimeter;" vertex="1" parent="LR544EB8NKKkz8-Wyp8B-12">
          <mxGeometry x="30" y="480" width="10" height="50" as="geometry" />
        </mxCell>
        <mxCell id="LR544EB8NKKkz8-Wyp8B-15" value="缓存用户信息" style="html=1;verticalAlign=bottom;endArrow=block;rounded=0;" edge="1" parent="1">
          <mxGeometry relative="1" as="geometry">
            <mxPoint x="280" y="230" as="sourcePoint" />
            <mxPoint x="520" y="230" as="targetPoint" />
          </mxGeometry>
        </mxCell>
        <mxCell id="LR544EB8NKKkz8-Wyp8B-16" value="缓存成功" style="html=1;verticalAlign=bottom;endArrow=open;dashed=1;endSize=8;rounded=0;" edge="1" parent="1">
          <mxGeometry relative="1" as="geometry">
            <mxPoint x="280" y="270" as="targetPoint" />
            <mxPoint x="520" y="270" as="sourcePoint" />
          </mxGeometry>
        </mxCell>
        <mxCell id="LR544EB8NKKkz8-Wyp8B-17" value="登录成功" style="html=1;verticalAlign=bottom;endArrow=open;dashed=1;endSize=8;curved=0;rounded=0;" edge="1" parent="1" source="LR544EB8NKKkz8-Wyp8B-4" target="LR544EB8NKKkz8-Wyp8B-2">
          <mxGeometry relative="1" as="geometry">
            <mxPoint x="270" y="310" as="sourcePoint" />
            <mxPoint x="150" y="300" as="targetPoint" />
            <Array as="points">
              <mxPoint x="240" y="300" />
            </Array>
          </mxGeometry>
        </mxCell>
        <mxCell id="LR544EB8NKKkz8-Wyp8B-18" value="" style="shape=umlLifeline;perimeter=lifelinePerimeter;whiteSpace=wrap;html=1;container=1;dropTarget=0;collapsible=0;recursiveResize=0;outlineConnect=0;portConstraint=eastwest;newEdgeStyle={&quot;curved&quot;:0,&quot;rounded&quot;:0};participant=umlActor;" vertex="1" parent="1">
          <mxGeometry y="90" width="20" height="520" as="geometry" />
        </mxCell>
        <mxCell id="LR544EB8NKKkz8-Wyp8B-19" value="查看文章" style="html=1;verticalAlign=bottom;endArrow=block;curved=0;rounded=0;" edge="1" parent="1" target="LR544EB8NKKkz8-Wyp8B-2">
          <mxGeometry width="80" relative="1" as="geometry">
            <mxPoint x="10" y="339.29" as="sourcePoint" />
            <mxPoint x="125" y="339.29" as="targetPoint" />
            <Array as="points">
              <mxPoint x="10" y="339.29" />
            </Array>
          </mxGeometry>
        </mxCell>
        <mxCell id="LR544EB8NKKkz8-Wyp8B-20" value="发送查看文章请求" style="html=1;verticalAlign=bottom;endArrow=block;curved=0;rounded=0;" edge="1" parent="1" source="LR544EB8NKKkz8-Wyp8B-2" target="LR544EB8NKKkz8-Wyp8B-4">
          <mxGeometry width="80" relative="1" as="geometry">
            <mxPoint x="150" y="490" as="sourcePoint" />
            <mxPoint x="260" y="490" as="targetPoint" />
            <Array as="points" />
          </mxGeometry>
        </mxCell>
        <mxCell id="LR544EB8NKKkz8-Wyp8B-21" value="" style="edgeStyle=elbowEdgeStyle;rounded=0;orthogonalLoop=1;jettySize=auto;html=1;elbow=vertical;curved=0;entryX=-0.236;entryY=0.318;entryDx=0;entryDy=0;entryPerimeter=0;" edge="1" parent="1" target="LR544EB8NKKkz8-Wyp8B-14">
          <mxGeometry relative="1" as="geometry">
            <mxPoint x="275" y="535.8823529411766" as="sourcePoint" />
          </mxGeometry>
        </mxCell>
        <mxCell id="LR544EB8NKKkz8-Wyp8B-22" value="更新缓存" style="edgeLabel;html=1;align=center;verticalAlign=middle;resizable=0;points=[];" vertex="1" connectable="0" parent="LR544EB8NKKkz8-Wyp8B-21">
          <mxGeometry x="-0.1137" y="5" relative="1" as="geometry">
            <mxPoint x="18" y="-11" as="offset" />
          </mxGeometry>
        </mxCell>
        <mxCell id="LR544EB8NKKkz8-Wyp8B-23" value="缓存成功" style="html=1;verticalAlign=bottom;endArrow=open;dashed=1;endSize=8;curved=0;rounded=0;" edge="1" parent="1" source="LR544EB8NKKkz8-Wyp8B-14">
          <mxGeometry relative="1" as="geometry">
            <mxPoint x="510" y="559" as="sourcePoint" />
            <mxPoint x="275" y="559" as="targetPoint" />
          </mxGeometry>
        </mxCell>
        <mxCell id="LR544EB8NKKkz8-Wyp8B-24" value="文章更新成功" style="html=1;verticalAlign=bottom;endArrow=open;dashed=1;endSize=8;curved=0;rounded=0;" edge="1" parent="1">
          <mxGeometry relative="1" as="geometry">
            <mxPoint x="265" y="570" as="sourcePoint" />
            <mxPoint x="145" y="570" as="targetPoint" />
          </mxGeometry>
        </mxCell>
        <mxCell id="LR544EB8NKKkz8-Wyp8B-25" value="查询文章信息" style="html=1;verticalAlign=bottom;endArrow=block;curved=0;rounded=0;" edge="1" parent="1" source="LR544EB8NKKkz8-Wyp8B-4" target="LR544EB8NKKkz8-Wyp8B-9">
          <mxGeometry width="80" relative="1" as="geometry">
            <mxPoint x="280" y="370" as="sourcePoint" />
            <mxPoint x="350" y="370" as="targetPoint" />
          </mxGeometry>
        </mxCell>
        <mxCell id="LR544EB8NKKkz8-Wyp8B-26" value="返回文章信息" style="html=1;verticalAlign=bottom;endArrow=open;dashed=1;endSize=8;curved=0;rounded=0;" edge="1" parent="1" target="LR544EB8NKKkz8-Wyp8B-4">
          <mxGeometry relative="1" as="geometry">
            <mxPoint x="410" y="390" as="sourcePoint" />
            <mxPoint x="330" y="390" as="targetPoint" />
          </mxGeometry>
        </mxCell>
        <mxCell id="LR544EB8NKKkz8-Wyp8B-27" value="编辑文章" style="html=1;verticalAlign=bottom;endArrow=block;curved=0;rounded=0;" edge="1" parent="1">
          <mxGeometry width="80" relative="1" as="geometry">
            <mxPoint x="10" y="410.29" as="sourcePoint" />
            <mxPoint x="135" y="410" as="targetPoint" />
            <Array as="points">
              <mxPoint x="10" y="410.29" />
            </Array>
          </mxGeometry>
        </mxCell>
        <mxCell id="LR544EB8NKKkz8-Wyp8B-29" value="发送查看文章请求" style="html=1;verticalAlign=bottom;endArrow=block;curved=0;rounded=0;" edge="1" parent="1" source="LR544EB8NKKkz8-Wyp8B-2" target="LR544EB8NKKkz8-Wyp8B-4">
          <mxGeometry width="80" relative="1" as="geometry">
            <mxPoint x="150" y="420" as="sourcePoint" />
            <mxPoint x="260" y="420" as="targetPoint" />
            <Array as="points" />
          </mxGeometry>
        </mxCell>
        <mxCell id="LR544EB8NKKkz8-Wyp8B-30" value="发送编辑文章请求" style="html=1;verticalAlign=bottom;endArrow=block;curved=0;rounded=0;" edge="1" parent="1">
          <mxGeometry width="80" relative="1" as="geometry">
            <mxPoint x="145" y="430" as="sourcePoint" />
            <mxPoint x="265" y="430" as="targetPoint" />
            <Array as="points" />
          </mxGeometry>
        </mxCell>
      </root>
    </mxGraphModel>
  </diagram>
</mxfile>
